<svg xmlns="http://www.w3.org/2000/svg" viewBox="0 0 200 200">
  <!-- ブースくん(手をふる) -->
  <!-- 左腕(あげて挨拶) -->
  <path d="M50 95 Q26 80 20 58" stroke="#2B838C" stroke-width="13" stroke-linecap="round" fill="none"/>
  <circle cx="19" cy="55" r="10" fill="#F7C948"/>
  <!-- 右腕 -->
  <path d="M152 102 Q172 114 176 132" stroke="#2B838C" stroke-width="13" stroke-linecap="round" fill="none"/>
  <circle cx="177" cy="135" r="10" fill="#F7C948"/>
  <!-- あし -->
  <rect x="74" y="150" width="15" height="24" rx="7.5" fill="#26221E"/>
  <rect x="111" y="150" width="15" height="24" rx="7.5" fill="#26221E"/>
  <ellipse cx="79" cy="176" rx="14" ry="7" fill="#D93B48"/>
  <ellipse cx="121" cy="176" rx="14" ry="7" fill="#D93B48"/>
  <!-- からだ(ブース) -->
  <rect x="44" y="60" width="112" height="96" rx="16" fill="#2B838C"/>
  <rect x="57" y="74" width="86" height="70" rx="10" fill="#FFFFFF"/>
  <!-- ヘルメット -->
  <path d="M56 62 Q56 30 100 30 Q144 30 144 62 Z" fill="#F7C948"/>
  <rect x="46" y="58" width="108" height="10" rx="5" fill="#E5B33B"/>
  <rect x="93" y="30" width="14" height="8" rx="4" fill="#E5B33B"/>
  <!-- かお -->
  <circle cx="82" cy="100" r="6.5" fill="#26221E"/>
  <circle cx="118" cy="100" r="6.5" fill="#26221E"/>
  <circle cx="70" cy="115" r="6" fill="#F5A8A8"/>
  <circle cx="130" cy="115" r="6" fill="#F5A8A8"/>
  <path d="M88 116 Q100 127 112 116" stroke="#26221E" stroke-width="4.5" stroke-linecap="round" fill="none"/>
</svg>
