<svg xmlns="http://www.w3.org/2000/svg" viewBox="0 0 200 200">
  <!-- 担当者さん(急に任された) -->
  <!-- からだ(スーツ) -->
  <rect x="62" y="98" width="76" height="72" rx="18" fill="#8A8580"/>
  <path d="M100 98 L100 170" stroke="#6E6A66" stroke-width="3"/>
  <path d="M92 98 L100 112 L108 98" fill="#fff"/>
  <rect x="97" y="110" width="6" height="26" rx="3" fill="#D93B48"/>
  <!-- うで(書類をかかえる) -->
  <path d="M62 116 Q40 130 46 150" stroke="#8A8580" stroke-width="14" stroke-linecap="round" fill="none"/>
  <path d="M138 116 Q160 130 154 150" stroke="#8A8580" stroke-width="14" stroke-linecap="round" fill="none"/>
  <!-- 書類 -->
  <g transform="rotate(-8 100 150)">
    <rect x="66" y="136" width="68" height="42" rx="4" fill="#fff" stroke="#26221E" stroke-width="3"/>
    <line x1="76" y1="148" x2="124" y2="148" stroke="#BFBFBF" stroke-width="4"/>
    <line x1="76" y1="158" x2="124" y2="158" stroke="#BFBFBF" stroke-width="4"/>
    <line x1="76" y1="168" x2="108" y2="168" stroke="#BFBFBF" stroke-width="4"/>
  </g>
  <circle cx="47" cy="152" r="9" fill="#F2C9A8"/>
  <circle cx="153" cy="152" r="9" fill="#F2C9A8"/>
  <!-- あたま -->
  <circle cx="100" cy="58" r="34" fill="#F2C9A8"/>
  <path d="M66 52 Q68 22 100 22 Q132 22 134 52 Q120 44 112 34 Q96 46 66 52 Z" fill="#26221E"/>
  <!-- かお(こまり顔) -->
  <circle cx="88" cy="60" r="4.5" fill="#26221E"/>
  <circle cx="114" cy="60" r="4.5" fill="#26221E"/>
  <path d="M82 50 Q87 46 92 49" stroke="#26221E" stroke-width="3" stroke-linecap="round" fill="none"/>
  <path d="M108 49 Q113 46 118 50" stroke="#26221E" stroke-width="3" stroke-linecap="round" fill="none"/>
  <path d="M94 76 Q100 72 106 76" stroke="#26221E" stroke-width="3.5" stroke-linecap="round" fill="none"/>
  <circle cx="79" cy="70" r="5" fill="#F5A8A8" opacity="0.85"/>
  <circle cx="121" cy="70" r="5" fill="#F5A8A8" opacity="0.85"/>
  <!-- あせ -->
  <path d="M138 40 q7 8 0 13 q-7 -5 0 -13 Z" fill="#7FC6CE"/>
</svg>
