<svg xmlns="http://www.w3.org/2000/svg" viewBox="0 0 800 200">
  <!-- にぎわう展示会シーン(オリジナル描き下ろし) -->
  <!-- ガーランド -->
  <path d="M0 14 Q200 34 400 14 Q600 34 800 14" stroke="#26221E" stroke-width="3" fill="none"/>
  <g>
    <path d="M60 22 l10 22 l10 -20 Z" fill="#D93B48"/>
    <path d="M160 28 l10 22 l10 -20 Z" fill="#F7C948"/>
    <path d="M260 26 l10 22 l10 -20 Z" fill="#2B838C"/>
    <path d="M360 20 l10 22 l10 -20 Z" fill="#AEBF6F"/>
    <path d="M460 24 l10 22 l10 -20 Z" fill="#D98452"/>
    <path d="M560 28 l10 22 l10 -20 Z" fill="#D93B48"/>
    <path d="M660 24 l10 22 l10 -20 Z" fill="#2B838C"/>
    <path d="M740 18 l10 22 l10 -20 Z" fill="#F7C948"/>
  </g>
  <!-- 地面 -->
  <line x1="10" y1="186" x2="790" y2="186" stroke="#26221E" stroke-width="3" stroke-linecap="round"/>
  <!-- ブース1(ティール) -->
  <rect x="40" y="70" width="170" height="116" rx="8" fill="#2B838C" stroke="#26221E" stroke-width="4"/>
  <rect x="54" y="88" width="142" height="98" rx="6" fill="#fff"/>
  <rect x="40" y="58" width="170" height="22" rx="8" fill="#F7C948" stroke="#26221E" stroke-width="4"/>
  <rect x="70" y="130" width="60" height="56" rx="4" fill="#2B838C" opacity="0.25"/>
  <rect x="80" y="104" width="86" height="14" rx="7" fill="#D93B48"/>
  <!-- ブース2(テラコッタ) -->
  <rect x="310" y="60" width="190" height="126" rx="8" fill="#D98452" stroke="#26221E" stroke-width="4"/>
  <rect x="324" y="78" width="162" height="108" rx="6" fill="#fff"/>
  <rect x="310" y="48" width="190" height="22" rx="8" fill="#2B838C" stroke="#26221E" stroke-width="4"/>
  <rect x="344" y="96" width="60" height="40" rx="4" fill="#AEBF6F" opacity="0.6"/>
  <rect x="416" y="96" width="52" height="40" rx="4" fill="#7FC6CE" opacity="0.6"/>
  <rect x="352" y="150" width="110" height="36" rx="4" fill="#D98452" opacity="0.3"/>
  <!-- ブース3(オリーブ) -->
  <rect x="600" y="70" width="160" height="116" rx="8" fill="#AEBF6F" stroke="#26221E" stroke-width="4"/>
  <rect x="612" y="88" width="136" height="98" rx="6" fill="#fff"/>
  <rect x="600" y="58" width="160" height="22" rx="8" fill="#D93B48" stroke="#26221E" stroke-width="4"/>
  <circle cx="680" cy="120" r="18" fill="#F7C948"/>
  <rect x="630" y="150" width="100" height="36" rx="4" fill="#AEBF6F" opacity="0.35"/>
  <!-- 人1 -->
  <circle cx="255" cy="128" r="14" fill="#F2C9A8"/>
  <path d="M241 126 Q243 110 255 110 Q267 110 269 126 Q258 122 241 126 Z" fill="#26221E"/>
  <rect x="243" y="142" width="24" height="36" rx="11" fill="#D93B48"/>
  <rect x="247" y="178" width="7" height="8" fill="#26221E"/>
  <rect x="256" y="178" width="7" height="8" fill="#26221E"/>
  <!-- 人2 -->
  <circle cx="540" cy="122" r="14" fill="#F2C9A8"/>
  <path d="M526 120 Q528 104 540 104 Q552 104 554 120 Q540 114 526 120 Z" fill="#4A3B30"/>
  <rect x="528" y="136" width="24" height="42" rx="11" fill="#2B838C"/>
  <rect x="532" y="178" width="7" height="8" fill="#26221E"/>
  <rect x="541" y="178" width="7" height="8" fill="#26221E"/>
  <!-- ブースくん -->
  <g transform="translate(770 150) scale(0.32) translate(-100 -100)">
    <path d="M50 92 Q28 74 26 50" stroke="#2B838C" stroke-width="13" stroke-linecap="round" fill="none"/>
    <circle cx="26" cy="46" r="10" fill="#F7C948"/>
    <path d="M150 92 Q172 74 174 50" stroke="#2B838C" stroke-width="13" stroke-linecap="round" fill="none"/>
    <circle cx="174" cy="46" r="10" fill="#F7C948"/>
    <rect x="74" y="150" width="15" height="24" rx="7.5" fill="#26221E"/>
    <rect x="111" y="150" width="15" height="24" rx="7.5" fill="#26221E"/>
    <ellipse cx="79" cy="176" rx="14" ry="7" fill="#D93B48"/>
    <ellipse cx="121" cy="176" rx="14" ry="7" fill="#D93B48"/>
    <rect x="44" y="60" width="112" height="96" rx="16" fill="#2B838C"/>
    <rect x="57" y="74" width="86" height="70" rx="10" fill="#FFFFFF"/>
    <path d="M56 62 Q56 30 100 30 Q144 30 144 62 Z" fill="#F7C948"/>
    <rect x="46" y="58" width="108" height="10" rx="5" fill="#E5B33B"/>
    <circle cx="82" cy="100" r="6.5" fill="#26221E"/>
    <circle cx="118" cy="100" r="6.5" fill="#26221E"/>
    <path d="M88 116 Q100 127 112 116" stroke="#26221E" stroke-width="4.5" stroke-linecap="round" fill="none"/>
  </g>
</svg>
